<svg id="图层_1" data-name="图层 1" xmlns="http://www.w3.org/2000/svg" viewBox="0 0 800 800"><defs><style>.cls-1{fill:none;stroke:#000;stroke-linecap:round;stroke-linejoin:round;stroke-width:12px;}</style></defs><title>eosbixin-logo(1)</title><polyline class="cls-1" points="298.89 223.92 399.92 537.5 250 444.66 298.89 223.92 399.92 87.5 399.92 183.18 250 444.66 550 444.66 400.08 183.18 400.08 87.5 501.11 223.92 550 444.66 400.08 537.5 501.11 223.92"/><path d="M206.18,634.13H172.25l-2.48,28.32h37.81l-.74,8.51H157.76l6.87-78.56h47.14l-.75,8.51H175.15L173,625.74h33.93Z"/><path d="M299.57,630.87c-2.36,27-21.88,41.37-44.15,41.37-23,0-37.83-16.08-35.75-39.86,2.18-24.94,20.83-41.26,44.14-41.26C287.64,591.12,301.61,607.55,299.57,630.87Zm-67.84,1.28c-1.47,16.78,7.32,31.82,25.06,31.82s29.27-14.8,30.83-32.64c1.36-15.62-6.27-31.93-25.05-31.93S233.24,614.9,231.73,632.15Z"/><path d="M310.23,658.61A40.66,40.66,0,0,0,330,663.74c11.53,0,18.74-5.48,19.43-13.41.65-7.34-3.65-11.54-15.08-15.62-13.85-4.54-22.07-11.19-21.1-22.26,1.07-12.24,13.13-21.33,30.1-21.33,8.93,0,15.24,1.86,19,3.85l-3.84,8.27a35.57,35.57,0,0,0-16.25-3.73c-11.91,0-17,6.41-17.47,11.77-.65,7.35,4.35,11,16,15.16C355.07,631.57,362,638,361,649.52c-1.06,12.12-11.95,22.61-32.54,22.61-8.42,0-17.42-2.22-21.84-5Z"/><path d="M381.33,593.45a123.78,123.78,0,0,1,20.73-1.63c11.27,0,18.37,1.75,23.46,5.71,4.27,3,6.58,7.69,6,13.87-.67,7.58-6.82,14.22-16.28,17.25l0,.23c8.13,1.87,17.3,8,16.28,19.7-.59,6.76-4,11.89-8.76,15.74-6.52,5-16.57,7.34-30.81,7.34a143.23,143.23,0,0,1-17.4-.93Zm5.16,69.82a65.63,65.63,0,0,0,9.41.47c11.65,0,22.74-3.85,23.74-15.27.94-10.73-8.91-15.16-21.21-15.16h-9.32Zm3.29-37.65H400c11.91,0,19.4-5.59,20.06-13.17.81-9.21-6.65-12.82-18.05-12.82a54.61,54.61,0,0,0-10,.7Z"/><path d="M462.88,592.4,456,671H444.74l6.87-78.56Z"/><path d="M523.47,671l-9.62-17.37c-4-6.64-6.42-11-8.74-15.5h-.26c-2.86,4.55-5.68,8.74-10.82,15.62L482,671H469.08l30.16-39.74L477,592.4h13.08L500,610.82c2.78,5.13,4.9,9.09,6.86,13.29h.39c2.87-4.67,5.39-8.28,9.06-13.29l13.53-18.42h12.95l-29.89,38.23L536.55,671Z"/><path d="M567.77,592.4,560.9,671H549.63l6.88-78.56Z"/><path d="M580.59,671l6.87-78.56h12.3l24.5,39.75a193.76,193.76,0,0,1,13.43,25.52l.27-.11a314.65,314.65,0,0,1,1.53-32.29l2.88-32.87H653L646.11,671H634.72L610.49,631.1a217.64,217.64,0,0,1-14-26.23l-.4.12c-.22,9.91-.79,19.35-1.93,32.4L591.2,671Z"/></svg>